<?xml version="1.0" encoding="utf-8"?><svg xmlns="http://www.w3.org/2000/svg" xmlns:xlink="http://www.w3.org/1999/xlink"><symbol viewBox="0 0 795 684" id="Bg-icon" xmlns="http://www.w3.org/2000/svg"><path d="M0 229.89L386.838 6.3457L397.426 0.208984L408.013 6.3457L794.852 229.89L773.677 266.783L397.426 49.3392L21.1745 266.783L0 229.89Z"/><path d="M531.317 465.709C478.148 511.053 440.658 572.061 424.207 640.014C494.244 634.424 560.769 606.999 614.428 561.596C668.086 516.193 706.177 455.096 723.345 386.896C652.557 391.908 585.245 419.534 531.317 465.709ZM263.577 465.709C209.626 419.553 142.292 391.964 71.4949 387.006C88.6612 455.209 126.754 516.31 180.417 561.714C234.079 607.118 300.61 634.54 370.651 640.123C354.241 572.131 316.761 511.079 263.577 465.709ZM44.8992 343.703C120.981 343.062 195.455 365.618 258.42 408.372C321.385 451.127 369.857 512.054 397.393 583.053C424.946 512.056 473.431 451.132 536.403 408.38C599.375 365.627 673.854 343.068 749.94 343.703L774.99 343.903L770.788 368.577C761.607 422.271 740.982 473.357 710.317 518.359C679.652 563.362 639.666 601.227 593.077 629.379L591.858 630.089L587.837 632.475L582.38 635.625L581.616 636.044C525.278 667.272 461.936 683.654 397.538 683.654C333.14 683.654 269.798 667.272 213.46 636.044L212.459 635.498L207.239 632.493L202.964 629.962L201.981 629.379C155.346 601.239 115.317 563.369 84.6193 518.348C53.9213 473.327 33.2759 422.213 24.0885 368.486L19.8862 343.83L44.8992 343.703Z"/><path fill-rule="evenodd" clip-rule="evenodd" d="M470.646 273.299V337.981H406.03V273.299H470.646ZM406.03 191.355H470.646V256.036H406.03V191.355ZM388.821 273.299V337.981H324.206V273.299H388.821ZM324.206 191.355H388.821V256.036H324.206V191.355Z"/></symbol><symbol viewBox="0 0 16 17" id="Checkbox" xmlns="http://www.w3.org/2000/svg"><rect y="0.408691" width="16" height="16" rx="8"/><path d="M4 8.13596L7.07692 11.4087L12 5.40869" stroke-width="1.5" stroke-linecap="round" stroke-linejoin="round"/><path d="M4 8.13596L7.07692 11.4087L12 5.40869" stroke-width="1.5" stroke-linecap="round" stroke-linejoin="round"/></symbol><symbol viewBox="0 0 25 25" id="Telegram-icon" xmlns="http://www.w3.org/2000/svg"><g clip-path="url(#ayclip0_67_2510)"><path d="M12.505 24.1262C19.1352 24.1262 24.51 18.7514 24.51 12.1212C24.51 5.49103 19.1352 0.116211 12.505 0.116211C5.87482 0.116211 0.5 5.49103 0.5 12.1212C0.5 18.7514 5.87482 24.1262 12.505 24.1262Z"/><path fill-rule="evenodd" clip-rule="evenodd" d="M5.92776 11.9911C9.4263 10.4717 11.7553 9.46212 12.9248 8.97232C16.2535 7.5829 16.9532 7.343 17.403 7.33301C17.5029 7.33301 17.7228 7.353 17.8728 7.47295C17.9927 7.57291 18.0227 7.70285 18.0427 7.80281C18.0627 7.90277 18.0827 8.11268 18.0627 8.27262C17.8828 10.1718 17.1031 14.7799 16.7033 16.899C16.5333 17.7986 16.2035 18.0985 15.8836 18.1285C15.1839 18.1885 14.6541 17.6687 13.9844 17.2289C12.9248 16.5392 12.3351 16.1094 11.3055 15.4296C10.116 14.65 10.8857 14.2201 11.5654 13.5204C11.7453 13.3405 14.8141 10.5417 14.874 10.2918C14.884 10.2618 14.884 10.1418 14.8141 10.0819C14.7441 10.0219 14.6441 10.0419 14.5642 10.0619C14.4542 10.0819 12.7749 11.2014 9.50627 13.4105C9.02647 13.7403 8.59665 13.9003 8.20681 13.8903C7.77699 13.8803 6.95733 13.6504 6.33759 13.4505C5.5879 13.2106 4.98815 13.0806 5.03813 12.6608C5.06812 12.4409 5.36799 12.221 5.92776 11.9911Z"/></g><defs><linearGradient id="aypaint0_linear_67_2510" x1="12.495" y1="0.116211" x2="12.495" y2="23.9363" gradientUnits="userSpaceOnUse"><stop stop-color="#2AABEE"/><stop offset="1" stop-color="#229ED9"/></linearGradient><clipPath id="ayclip0_67_2510"><rect width="24" height="24" transform="translate(0.5 0.116211)"/></clipPath></defs></symbol><symbol viewBox="0 0 25 25" id="WhatsApp-icon" xmlns="http://www.w3.org/2000/svg"><path d="M12.5036 2.11624C6.71202 2.11624 2.00207 6.82447 2.00001 12.6116C1.99716 14.5877 2.55364 16.5243 3.60513 18.1975L3.85494 18.5946L2.79407 22.4676L6.76799 21.4256L7.15171 21.6529C8.76336 22.6094 10.6112 23.1152 12.4957 23.1162H12.4997C18.2868 23.1162 22.9967 18.4075 22.999 12.62C23.0033 11.2406 22.734 9.874 22.2066 8.59936C21.6793 7.32473 20.9043 6.16737 19.9266 5.19428C18.9543 4.21587 17.7976 3.44004 16.5234 2.91169C15.2493 2.38334 13.883 2.11298 12.5036 2.11624Z"/><path fill-rule="evenodd" clip-rule="evenodd" d="M9.3425 7.33148C9.10591 6.80594 8.85696 6.79529 8.63222 6.78619L8.02719 6.77881C7.8167 6.77881 7.47469 6.85779 7.18557 7.17369C6.89644 7.4896 6.08075 8.2531 6.08075 9.80603C6.08075 11.359 7.21184 12.8595 7.36945 13.0704C7.52706 13.2812 9.55299 16.5695 12.7613 17.8347C15.4275 18.8861 15.97 18.677 16.549 18.6245C17.1279 18.572 18.4164 17.861 18.6793 17.1239C18.9421 16.3869 18.9423 15.7554 18.8635 15.6234C18.7847 15.4913 18.5742 15.4129 18.2583 15.2549C17.9424 15.097 16.3908 14.3335 16.1016 14.2281C15.8123 14.1226 15.6019 14.0703 15.3913 14.3862C15.1806 14.7021 14.5764 15.4127 14.3922 15.6234C14.208 15.834 14.0241 15.8605 13.7082 15.7027C13.3923 15.5449 12.3759 15.2115 11.17 14.1362C10.2317 13.2996 9.59832 12.2663 9.41392 11.9506C9.22953 11.6349 9.39435 11.4639 9.55265 11.3066C9.69429 11.1651 9.86821 10.938 10.0263 10.7538C10.1845 10.5695 10.2365 10.4378 10.3416 10.2275C10.4466 10.0172 10.3943 9.83247 10.3153 9.67469C10.2363 9.5169 9.62304 7.95574 9.3425 7.33148Z"/><defs><linearGradient id="bapaint0_linear_67_2513" x1="12.2857" y1="3.37644" x2="12.3922" y2="21.3222" gradientUnits="userSpaceOnUse"><stop stop-color="#57D163"/><stop offset="1" stop-color="#23B33A"/></linearGradient></defs></symbol><symbol viewBox="0 0 11 11" id="arr" xmlns="http://www.w3.org/2000/svg"><path d="M7.869 2.56863L1.54747 2.56863V0.902211L10.7139 0.902212L10.7139 10.0687H9.04751V3.74714L1.87509 10.9196L0.696581 9.74104L7.869 2.56863Z"/></symbol><symbol viewBox="0 0 11 11" id="arrow" xmlns="http://www.w3.org/2000/svg"><path d="M7.86854 2.56863L1.54701 2.56863V0.902211L10.7135 0.902212L10.7135 10.0687H9.04705V3.74714L1.87463 10.9196L0.696123 9.74104L7.86854 2.56863Z"/></symbol><symbol viewBox="0 0 17 12" id="arrow-left" xmlns="http://www.w3.org/2000/svg"><path d="M7.5 1.11621L2 6.11621M2 6.11621L7.5 11.1162M2 6.11621L16 6.11621" stroke-width="1.5" stroke-linecap="round"/></symbol><symbol viewBox="0 0 17 12" id="arrow-right" xmlns="http://www.w3.org/2000/svg"><path d="M9.5 1.11621L15 6.11621M15 6.11621L9.5 11.1162M15 6.11621L1 6.11621" stroke-width="1.5" stroke-linecap="round"/></symbol><symbol viewBox="0 0 20 21" id="arrow-up" xmlns="http://www.w3.org/2000/svg"><g clip-path="url(#adclip0_49_469)"><path d="M11.8685 7.56863L5.54701 7.56863V5.90221L14.7135 5.90221L14.7135 15.0687H13.0471V8.74714L5.87463 15.9196L4.69612 14.741L11.8685 7.56863Z"/></g><defs><clipPath id="adclip0_49_469"><rect width="20" height="20" transform="translate(0 0.616211)"/></clipPath></defs></symbol><symbol viewBox="0 0 48 49" id="builder-employee" xmlns="http://www.w3.org/2000/svg"><path d="M6 42.1162V41.1732C6 38.3131 8.01876 35.8506 10.8233 35.2897L16.5153 34.1513C16.9858 34.0573 17.4743 34.1539 17.8735 34.42V34.42C21.5834 36.8933 26.4166 36.8933 30.1266 34.42V34.42C30.5258 34.1539 31.0143 34.0573 31.4848 34.1513L37.1768 35.2897C39.9813 35.8507 42 38.3132 42 41.1732V42.1162" stroke-width="2" stroke-linecap="round" stroke-linejoin="round"/><path d="M16 42.1162V34.2544" stroke-width="2" stroke-linecap="round" stroke-linejoin="round"/><path d="M32 42.1162V34.2544" stroke-width="2" stroke-linecap="round" stroke-linejoin="round"/><path fill-rule="evenodd" clip-rule="evenodd" d="M15.6697 18.1162H32.3303C33.4349 18.1162 34.3303 17.2208 34.3303 16.1162V14.4465C34.3303 11.7067 33.2419 9.07919 31.3046 7.14188C29.3673 5.20457 26.7398 4.11621 24 4.11621V4.11621C21.2602 4.11621 18.6327 5.20457 16.6954 7.14188C14.758 9.07919 13.6697 11.7067 13.6697 14.4465V16.1162C13.6697 17.2208 14.5651 18.1162 15.6697 18.1162Z" stroke-width="2" stroke-linecap="round" stroke-linejoin="round"/><path d="M13 18.1162H35" stroke-width="2" stroke-linecap="round" stroke-linejoin="round"/><path d="M32 18.1162V22.1152C32 26.5335 28.4183 30.1152 24 30.1152V30.1152C19.5817 30.1152 16 26.5335 16 22.1152V18.1162" stroke-width="2" stroke-linecap="round" stroke-linejoin="round"/><path d="M28.2024 28.926L29.6506 34.719" stroke-width="2" stroke-linecap="round" stroke-linejoin="round"/><path d="M19.8024 28.926L18.3543 34.7187" stroke-width="2" stroke-linecap="round" stroke-linejoin="round"/><path d="M27 4.55893V7.31731C27 8.97416 25.6569 10.3173 24 10.3173V10.3173C22.3431 10.3173 21 8.97416 21 7.31731V4.55893" stroke-width="2" stroke-linecap="round" stroke-linejoin="round"/><path d="M14 42.1162H34" stroke-width="2" stroke-linecap="round" stroke-linejoin="round"/></symbol><symbol viewBox="0 0 25 25" id="clock" xmlns="http://www.w3.org/2000/svg"><path fill-rule="evenodd" clip-rule="evenodd" d="M12.5 21.1162C17.4706 21.1162 21.5 17.0868 21.5 12.1162C21.5 7.14565 17.4706 3.11621 12.5 3.11621C7.52944 3.11621 3.5 7.14565 3.5 12.1162C3.5 17.0868 7.52944 21.1162 12.5 21.1162ZM11.1152 8.30824C11.1152 7.73471 11.5802 7.26978 12.1537 7.26978C12.7272 7.26978 13.1922 7.73471 13.1922 8.30824V11.4244H16.3077C16.8813 11.4244 17.3462 11.8894 17.3462 12.4629C17.3462 13.0364 16.8813 13.5014 16.3077 13.5014H12.8462C12.7244 13.5014 12.6074 13.4804 12.4988 13.4418C12.3908 13.4799 12.2747 13.5005 12.1537 13.5005C11.5802 13.5005 11.1152 13.0356 11.1152 12.4621V8.30824Z" fill-opacity="0.4"/></symbol><symbol viewBox="0 0 21 20" id="comment" xmlns="http://www.w3.org/2000/svg"><path d="M15.75 11.8662H17.7522C18.8568 11.8662 19.7522 10.9708 19.7522 9.86621V3.36621C19.7522 2.26164 18.8568 1.36621 17.7522 1.36621H7.5022C6.39763 1.36621 5.5022 2.26164 5.5022 3.36621V5.36621M13.7522 5.36621H3.2522C2.14763 5.36621 1.2522 6.26164 1.2522 7.36621V13.8662C1.2522 14.9708 2.14763 15.8662 3.2522 15.8662H4.5022V18.3662L9.0022 15.8662H13.7522C14.8568 15.8662 15.7522 14.9708 15.7522 13.8662V7.36621C15.7522 6.26164 14.8568 5.36621 13.7522 5.36621Z" stroke-width="1.5" stroke-linecap="round" stroke-linejoin="round"/></symbol><symbol viewBox="0 0 16 16" id="download" xmlns="http://www.w3.org/2000/svg"><path d="M14.875 10.4079V14.9912H1.125V10.4079M7.99999 10.6162V1.24121M7.99999 10.6162L5.08333 7.69954M7.99999 10.6162L10.9167 7.69954" stroke-width="1.5" stroke-linecap="round" stroke-linejoin="round"/></symbol><symbol viewBox="0 0 10 7" id="dropdown-arrow" xmlns="http://www.w3.org/2000/svg"><path d="M1 1.61621L5 5.61621L9 1.61621" stroke-width="1.5" stroke-linecap="round" stroke-linejoin="round"/></symbol><symbol viewBox="0 0 25 25" id="icon-time" xmlns="http://www.w3.org/2000/svg"><path fill-rule="evenodd" clip-rule="evenodd" d="M12.5 21.1162C17.4706 21.1162 21.5 17.0868 21.5 12.1162C21.5 7.14565 17.4706 3.11621 12.5 3.11621C7.52944 3.11621 3.5 7.14565 3.5 12.1162C3.5 17.0868 7.52944 21.1162 12.5 21.1162ZM11.1152 8.30824C11.1152 7.73471 11.5802 7.26978 12.1537 7.26978C12.7272 7.26978 13.1922 7.73471 13.1922 8.30824V11.4244H16.3077C16.8813 11.4244 17.3462 11.8894 17.3462 12.4629C17.3462 13.0364 16.8813 13.5014 16.3077 13.5014H12.8462C12.7244 13.5014 12.6074 13.4804 12.4988 13.4418C12.3908 13.4799 12.2747 13.5005 12.1537 13.5005C11.5802 13.5005 11.1152 13.0356 11.1152 12.4621V8.30824Z" fill-opacity="0.4"/></symbol><symbol viewBox="0 0 48 49" id="list-house" xmlns="http://www.w3.org/2000/svg"><path d="M16 10.1162H12C9.79086 10.1162 8 11.9071 8 14.1162V38.1162C8 40.3254 9.79086 42.1162 12 42.1162H22" stroke-width="2" stroke-linecap="round" stroke-linejoin="round"/><rect x="16" y="6.11621" width="16" height="8" rx="2" stroke-width="2" stroke-linecap="round" stroke-linejoin="round"/><path d="M32 10.1162H36C38.2091 10.1162 40 11.9071 40 14.1162V24.1162" stroke-width="2" stroke-linecap="round" stroke-linejoin="round"/><path fill-rule="evenodd" clip-rule="evenodd" d="M42 35.3737V40.1162C42 41.2208 41.1046 42.1162 40 42.1162H32C30.8954 42.1162 30 41.2208 30 40.1162V35.2585C30 34.6509 30.2762 34.0763 30.7506 33.6967L34.6786 30.5544C35.4091 29.9701 36.4469 29.9701 37.1774 30.5544L41.2494 33.8119C41.7238 34.1915 42 34.7661 42 35.3737Z" stroke-width="2" stroke-linecap="round" stroke-linejoin="round"/><path d="M16 21.8662C15.8619 21.8662 15.75 21.9781 15.75 22.1162C15.75 22.2543 15.8619 22.3662 16 22.3662C16.1381 22.3662 16.25 22.2543 16.25 22.1162C16.25 21.9781 16.1381 21.8662 16 21.8662" stroke-width="2" stroke-linecap="round" stroke-linejoin="round"/><path d="M16 29.8662C15.8619 29.8662 15.75 29.9781 15.75 30.1162C15.75 30.2543 15.8619 30.3662 16 30.3662C16.1381 30.3662 16.25 30.2543 16.25 30.1162C16.25 29.9781 16.1381 29.8662 16 29.8662" stroke-width="2" stroke-linecap="round" stroke-linejoin="round"/><path d="M32 22.1162H22" stroke-width="2" stroke-linecap="round" stroke-linejoin="round"/><path d="M24 30.1162H22" stroke-width="2" stroke-linecap="round" stroke-linejoin="round"/></symbol><symbol viewBox="0 0 38 34" id="logo" xmlns="http://www.w3.org/2000/svg"><path d="M0 11.7051L18.4938 1.02886L19 0.735779L19.5062 1.02886L38 11.7051L36.9877 13.4671L19 3.08219L1.0123 13.4671L0 11.7051Z"/><path d="M25.4009 22.9675C22.859 25.1331 21.0667 28.0467 20.2802 31.2921C23.6285 31.0251 26.8089 29.7154 29.3742 27.547C31.9395 25.3786 33.7605 22.4606 34.5813 19.2035C31.1971 19.4428 27.9791 20.7622 25.4009 22.9675ZM12.6009 22.9675C10.0216 20.7631 6.8025 19.4455 3.41786 19.2087C4.23854 22.466 6.05968 25.3841 8.62515 27.5526C11.1906 29.721 14.3713 31.0307 17.7198 31.2973C16.9353 28.0501 15.1435 25.1343 12.6009 22.9675ZM2.14638 17.1406C5.78366 17.11 9.3441 18.1872 12.3543 20.2291C15.3645 22.2711 17.6819 25.1809 18.9983 28.5717C20.3155 25.181 22.6335 22.2713 25.644 20.2295C28.6546 18.1877 32.2152 17.1103 35.8528 17.1406L37.0503 17.1502L36.8494 18.3286C36.4105 20.8929 35.4245 23.3327 33.9585 25.482C32.4924 27.6313 30.5808 29.4397 28.3535 30.7842L28.2952 30.8181L28.103 30.932L27.8421 31.0825L27.8056 31.1025C25.1122 32.5939 22.0839 33.3763 19.0052 33.3763C15.9265 33.3763 12.8983 32.5939 10.2049 31.1025L10.157 31.0764L9.90744 30.9329L9.70307 30.812L9.6561 30.7842C7.4266 29.4402 5.51289 27.6316 4.0453 25.4815C2.5777 23.3313 1.59069 20.8902 1.15146 18.3242L0.950562 17.1467L2.14638 17.1406Z"/><path fill-rule="evenodd" clip-rule="evenodd" d="M22.5005 13.7784V16.8676H19.4114V13.7784H22.5005ZM19.4114 9.86487H22.5005V12.954H19.4114V9.86487ZM18.5886 13.7784V16.8676H15.4995V13.7784H18.5886ZM15.4995 9.86487H18.5886V12.954H15.4995V9.86487Z"/></symbol><symbol viewBox="0 0 18 15" id="mail-icon" xmlns="http://www.w3.org/2000/svg"><path d="M16.7083 1.57452H17.3333V0.949524H16.7083V1.57452ZM16.7083 13.6579V14.2829H17.3333V13.6579H16.7083ZM1.29166 13.6579H0.666664V14.2829H1.29166V13.6579ZM1.29166 1.57452V0.949524H0.666664V1.57452H1.29166ZM9 8.44952L8.60422 8.93325L9 9.25706L9.39577 8.93325L9 8.44952ZM16.0833 1.57452V13.6579H17.3333V1.57452H16.0833ZM16.7083 13.0329H1.29166V14.2829H16.7083V13.0329ZM1.91666 13.6579V1.57452H0.666664V13.6579H1.91666ZM1.29166 2.19952H16.7083V0.949524H1.29166V2.19952ZM9.39577 7.9658L1.89577 1.82944L1.10422 2.79688L8.60422 8.93325L9.39577 7.9658ZM16.1042 1.82944L8.60422 7.9658L9.39577 8.93325L16.8958 2.79688L16.1042 1.82944Z"/></symbol><symbol viewBox="0 0 15 21" id="map-pin" xmlns="http://www.w3.org/2000/svg"><path d="M7.5 0.116211C3.63 0.116211 0.5 3.24621 0.5 7.11621C0.5 12.3662 7.5 20.1162 7.5 20.1162C7.5 20.1162 14.5 12.3662 14.5 7.11621C14.5 3.24621 11.37 0.116211 7.5 0.116211ZM7.5 9.61621C6.12 9.61621 5 8.49621 5 7.11621C5 5.73621 6.12 4.61621 7.5 4.61621C8.88 4.61621 10 5.73621 10 7.11621C10 8.49621 8.88 9.61621 7.5 9.61621Z" fill-opacity="0.4"/></symbol><symbol viewBox="0 0 15 9" id="nav-btn-up" xmlns="http://www.w3.org/2000/svg"><path d="M13.5 7.61621L7.5 1.61621L1.5 7.61621" stroke-width="2" stroke-linecap="round" stroke-linejoin="round"/></symbol><symbol viewBox="0 0 17 18" id="phone" xmlns="http://www.w3.org/2000/svg"><path d="M16.8905 13.9732C16.8505 13.7255 16.6952 13.5139 16.4626 13.3881L13.0222 11.3611L12.9939 11.3452C12.8496 11.273 12.6903 11.236 12.529 11.2372C12.2408 11.2372 11.9655 11.3464 11.7745 11.5379L10.759 12.5539C10.7156 12.5951 10.574 12.6549 10.531 12.6571C10.5193 12.6561 9.3495 12.5719 7.19598 10.4181C5.0463 8.26891 4.9551 7.09555 4.95438 7.09555C4.95558 7.03555 5.01462 6.89443 5.05662 6.85075L5.92254 5.98507C6.22758 5.67931 6.31902 5.17243 6.13806 4.77979L4.22574 1.18147C4.08678 0.89539 3.81678 0.71875 3.51726 0.71875C3.30534 0.71875 3.10086 0.80659 2.94102 0.96619L0.580618 3.32131C0.354298 3.54643 0.159418 3.94003 0.116938 4.25683C0.0962976 4.40827 -0.322502 8.02315 4.6335 12.9799C8.84094 17.1868 12.1217 17.5137 13.0277 17.5137C13.1381 17.5151 13.2484 17.5094 13.358 17.4967C13.6738 17.4544 14.0669 17.26 14.2918 17.0347L16.6503 14.6764C16.8428 14.483 16.9306 14.2274 16.8905 13.9732Z"/></symbol><symbol viewBox="0 0 16 16" id="phone-icon" xmlns="http://www.w3.org/2000/svg"><path d="M6.54167 4.28288L5.5 0.741211H3.8353H1.12657C1.12552 0.81053 1.125 0.879976 1.125 0.949544C1.125 3.42226 1.78776 5.74019 2.94532 7.73537C4.1313 9.77953 5.83668 11.4849 7.88084 12.6709C9.87602 13.8285 12.1939 14.4912 14.6667 14.4912H14.875V10.1162L11.3333 9.07454L9.82651 10.6442C7.72985 9.59533 6.02088 7.88636 4.97206 5.7897L6.54167 4.28288Z" stroke-width="1.25"/></symbol><symbol viewBox="0 0 15 21" id="pin" xmlns="http://www.w3.org/2000/svg"><path d="M7.5 0.116211C3.63 0.116211 0.5 3.24621 0.5 7.11621C0.5 12.3662 7.5 20.1162 7.5 20.1162C7.5 20.1162 14.5 12.3662 14.5 7.11621C14.5 3.24621 11.37 0.116211 7.5 0.116211ZM7.5 9.61621C6.12 9.61621 5 8.49621 5 7.11621C5 5.73621 6.12 4.61621 7.5 4.61621C8.88 4.61621 10 5.73621 10 7.11621C10 8.49621 8.88 9.61621 7.5 9.61621Z" fill-opacity="0.4"/></symbol><symbol viewBox="0 0 117 182" id="pinn" xmlns="http://www.w3.org/2000/svg"><g filter="url(#avfilter0_d_70_777)"><rect x="30" y="0.116211" width="57" height="57" rx="16"/><path d="M39.5 23.2652L57.9938 12.589L58.5 12.2959L59.0062 12.589L77.5 23.2652L76.4877 25.0272L58.5 14.6423L40.5123 25.0272L39.5 23.2652Z"/><path d="M64.9009 34.5277C62.359 36.6933 60.5667 39.607 59.7802 42.8523C63.1285 42.5854 66.3089 41.2756 68.8742 39.1072C71.4395 36.9388 73.2605 34.0209 74.0813 30.7637C70.6971 31.0031 67.4791 32.3225 64.9009 34.5277ZM52.1009 34.5277C49.5216 32.3234 46.3025 31.0057 42.9179 30.7689C43.7385 34.0263 45.5597 36.9444 48.1251 39.1128C50.6906 41.2813 53.8713 42.5909 57.2198 42.8576C56.4353 39.6103 54.6435 36.6946 52.1009 34.5277ZM41.6464 28.7008C45.2837 28.6702 48.8441 29.7475 51.8543 31.7894C54.8645 33.8313 57.1819 36.7411 58.4983 40.132C59.8155 36.7412 62.1335 33.8316 65.144 31.7897C68.1546 29.7479 71.7152 28.6705 75.3528 28.7008L76.5503 28.7104L76.3494 29.8888C75.9105 32.4532 74.9245 34.893 73.4585 37.0423C71.9924 39.1915 70.0808 40.9999 67.8535 42.3444L67.7952 42.3784L67.603 42.4923L67.3421 42.6428L67.3056 42.6628C64.6122 44.1541 61.5839 44.9366 58.5052 44.9366C55.4265 44.9366 52.3983 44.1541 49.7049 42.6628L49.657 42.6367L49.4074 42.4932L49.2031 42.3723L49.1561 42.3444C46.9266 41.0005 45.0129 39.1918 43.5453 37.0417C42.0777 34.8916 41.0907 32.4504 40.6515 29.8845L40.4506 28.7069L41.6464 28.7008Z"/><path fill-rule="evenodd" clip-rule="evenodd" d="M62.0005 25.3384V28.4275H58.9114V25.3384H62.0005ZM58.9114 21.4248H62.0005V24.5139H58.9114V21.4248ZM58.0887 25.3384V28.4275H54.9996V25.3384H58.0887ZM54.9996 21.4248H58.0887V24.5139H54.9996V21.4248Z"/><line x1="59.5" y1="57.1162" x2="59.5" y2="79.1162" stroke-width="3"/></g><defs><filter id="avfilter0_d_70_777" x="0" y="0.116211" width="117" height="181" filterUnits="userSpaceOnUse" color-interpolation-filters="sRGB"><feFlood flood-opacity="0" result="BackgroundImageFix"/><feColorMatrix in="SourceAlpha" type="matrix" values="0 0 0 0 0 0 0 0 0 0 0 0 0 0 0 0 0 0 127 0" result="hardAlpha"/><feOffset dy="72"/><feGaussianBlur stdDeviation="15"/><feComposite in2="hardAlpha" operator="out"/><feColorMatrix type="matrix" values="0 0 0 0 0 0 0 0 0 0 0 0 0 0 0 0 0 0 0.07 0"/><feBlend mode="normal" in2="BackgroundImageFix" result="effect1_dropShadow_70_777"/><feBlend mode="normal" in="SourceGraphic" in2="effect1_dropShadow_70_777" result="shape"/></filter></defs></symbol><symbol viewBox="0 0 24 25" id="pointer" xmlns="http://www.w3.org/2000/svg"><path d="M11.5 8.86621H11V9.86621H11.5V8.86621ZM3 11.6162L2.60957 11.3039L2.40972 11.5537L2.55279 11.8398L3 11.6162ZM3.6041 10.8611L3.21367 10.5487H3.21367L3.6041 10.8611ZM6.58005 10.6963L6.2265 11.0498H6.2265L6.58005 10.6963ZM7.5 11.6162L7.14645 11.9698L8 12.8233V11.6162H7.5ZM11 9.11621V9.61621H12V9.11621H11ZM15.5 8.86621H11.5V9.86621H15.5V8.86621ZM19 13.3662V14.6162H20V13.3662H19ZM15.5 9.86621C17.433 9.86621 19 11.4332 19 13.3662H20C20 10.8809 17.9853 8.86621 15.5 8.86621V9.86621ZM6.48278 17.4637L3.44721 11.3926L2.55279 11.8398L5.58835 17.9109L6.48278 17.4637ZM3.39043 11.9286L3.99453 11.1734L3.21367 10.5487L2.60957 11.3039L3.39043 11.9286ZM6.2265 11.0498L7.14645 11.9698L7.85355 11.2627L6.9336 10.3427L6.2265 11.0498ZM8 11.6162V9.86621H7V11.6162H8ZM8 9.86621V9.11621H7V9.86621H8ZM3.99453 11.1734C4.55302 10.4753 5.59433 10.4177 6.2265 11.0498L6.9336 10.3427C5.88 9.2891 4.14448 9.38522 3.21367 10.5487L3.99453 11.1734ZM12.434 21.1162C9.92804 21.1162 7.60056 19.6993 6.48278 17.4637L5.58835 17.9109C6.87844 20.4911 9.55583 22.1162 12.434 22.1162V21.1162ZM19 14.6162C19 18.2 16.03 21.1162 12.434 21.1162V22.1162C16.57 22.1162 20 18.7644 20 14.6162H19ZM8 9.11621V4.61621H7V9.11621H8ZM11 4.61621V9.11621H12V4.61621H11ZM9.5 3.11621C10.3284 3.11621 11 3.78778 11 4.61621H12C12 3.2355 10.8807 2.11621 9.5 2.11621V3.11621ZM8 4.61621C8 3.78778 8.67157 3.11621 9.5 3.11621V2.11621C8.11929 2.11621 7 3.2355 7 4.61621H8Z"/></symbol><symbol viewBox="0 0 48 49" id="project-plan-pen-arrow" xmlns="http://www.w3.org/2000/svg"><path d="M34.143 35.1162V13.2592H29.143V17.4021" stroke-width="2" stroke-linecap="round" stroke-linejoin="round"/><path d="M20.857 35.1162V26.6872H26.857V35.1162" stroke-width="2" stroke-linecap="round" stroke-linejoin="round"/><path d="M13.571 21.7892V35.1162" stroke-width="2" stroke-linecap="round" stroke-linejoin="round"/><path d="M36 35.1162H12" stroke-width="2" stroke-linecap="round" stroke-linejoin="round"/><path d="M12 23.1162L24 13.1162L36 23.1162" stroke-width="2" stroke-linecap="round" stroke-linejoin="round"/><path d="M6 24.1162V36.1162C6 39.4299 8.68629 42.1162 12 42.1162H36C39.3137 42.1162 42 39.4299 42 36.1162V12.1162C42 8.8025 39.3137 6.11621 36 6.11621H24" stroke-width="2" stroke-linecap="round" stroke-linejoin="round"/><path d="M18 6.11621H10C7.79086 6.11621 6 7.90707 6 10.1162V18.1162" stroke-width="2" stroke-linecap="round" stroke-linejoin="round"/><path d="M3 15.1162L6 18.1162L9 15.1162" stroke-width="2" stroke-linecap="round" stroke-linejoin="round"/><path d="M15 9.11621L18 6.11621L15 3.11621" stroke-width="2" stroke-linecap="round" stroke-linejoin="round"/></symbol><symbol viewBox="0 0 23 25" id="viber-icon" xmlns="http://www.w3.org/2000/svg"><g clip-path="url(#azclip0_67_2527)"><path d="M19.6074 2.1297C19.0628 1.63488 16.712 0.15781 11.807 0.136415C11.807 0.136415 5.99869 -0.245203 3.17915 2.30864C1.60989 3.85807 1.08122 6.16217 1.02326 8.97393C0.965299 11.7857 0.664983 17.1571 5.80808 18.586C5.80808 18.586 5.78785 22.5737 5.78551 22.9242C5.78551 23.1693 5.82442 23.3369 5.96446 23.3716C6.06521 23.3961 6.21615 23.3439 6.34452 23.216C7.16689 22.3901 9.7997 19.2138 9.7997 19.2138C13.3323 19.4445 16.1429 18.747 16.4452 18.6482C17.1578 18.4191 21.0125 18.088 21.6649 12.8185C22.339 7.38677 21.4171 3.67912 19.6074 2.1297Z"/><path d="M14.3009 8.74315C14.2371 7.45708 13.5838 6.78163 12.3411 6.7168" stroke-width="0.607176" stroke-linecap="round" stroke-linejoin="round"/><path d="M15.9834 9.30684C16.0093 8.10869 15.6544 7.10764 14.9187 6.30368C14.1796 5.49688 13.1565 5.05263 11.8436 4.95654" stroke-width="0.607176" stroke-linecap="round" stroke-linejoin="round"/><path d="M17.7059 9.98057C17.6901 7.90144 17.0689 6.26397 15.8422 5.06815C14.6155 3.87234 13.09 3.26808 11.2655 3.25537" stroke-width="0.607176" stroke-linecap="round" stroke-linejoin="round"/><path d="M12.4061 13.1355C12.4061 13.1355 12.8671 13.1744 13.1152 12.8686L13.5992 12.2598C13.8326 11.9579 14.3959 11.7654 14.9475 12.0727C15.3609 12.3084 15.7622 12.5647 16.1499 12.8406C16.516 13.1098 17.2656 13.7353 17.2679 13.7353C17.625 14.0368 17.7075 14.4795 17.4644 14.9463C17.4644 14.949 17.4624 14.9537 17.4624 14.956C17.1946 15.4202 16.8547 15.8389 16.4553 16.1962C16.4506 16.1985 16.4506 16.2009 16.4463 16.2032C16.0993 16.4931 15.7584 16.6579 15.4236 16.6976C15.3743 16.7062 15.3242 16.7094 15.2743 16.707C15.1266 16.7084 14.9797 16.6858 14.8393 16.64L14.8284 16.6241C14.3126 16.4786 13.4514 16.1145 12.0171 15.3232C11.1871 14.8708 10.3969 14.3488 9.65501 13.7629C9.28315 13.4694 8.92844 13.1549 8.59263 12.8207L8.55684 12.785L8.52105 12.7492L8.48526 12.7134C8.4732 12.7017 8.46153 12.6897 8.44947 12.6776C8.11535 12.3418 7.80077 11.9871 7.50729 11.6152C6.92152 10.8734 6.39955 10.0833 5.94697 9.25353C5.15573 7.81886 4.79161 6.95837 4.64613 6.44177L4.63018 6.43088C4.58457 6.29047 4.5621 6.14358 4.56366 5.99597C4.56093 5.94599 4.56393 5.89588 4.5726 5.84659C4.61436 5.5123 4.77943 5.17114 5.06781 4.8231C5.07015 4.81882 5.07248 4.81882 5.07481 4.81416C5.43204 4.41476 5.85069 4.07491 6.31498 3.8074C6.31731 3.8074 6.32198 3.80506 6.3247 3.80506C6.79151 3.56193 7.23421 3.6444 7.5353 3.99957C7.53763 4.0019 8.16199 4.75152 8.43002 5.11758C8.70592 5.50571 8.96221 5.90741 9.19792 6.32118C9.50524 6.8724 9.31268 7.43686 9.01081 7.66948L8.40201 8.15341C8.09469 8.4016 8.13515 8.86258 8.13515 8.86258C8.13515 8.86258 9.03687 12.2754 12.4061 13.1355Z"/></g><defs><clipPath id="azclip0_67_2527"><rect width="22.7597" height="24" transform="translate(0.120117 0.162109)"/></clipPath></defs></symbol></svg>