<svg width="795" height="684" viewBox="0 0 795 684" fill="none" xmlns="http://www.w3.org/2000/svg">
<path d="M0 229.89L386.838 6.3457L397.426 0.208984L408.013 6.3457L794.852 229.89L773.677 266.783L397.426 49.3392L21.1745 266.783L0 229.89Z" fill="white"/>
<path d="M531.317 465.709C478.148 511.053 440.658 572.061 424.207 640.014C494.244 634.424 560.769 606.999 614.428 561.596C668.086 516.193 706.177 455.096 723.345 386.896C652.557 391.908 585.245 419.534 531.317 465.709ZM263.577 465.709C209.626 419.553 142.292 391.964 71.4949 387.006C88.6612 455.209 126.754 516.31 180.417 561.714C234.079 607.118 300.61 634.54 370.651 640.123C354.241 572.131 316.761 511.079 263.577 465.709ZM44.8992 343.703C120.981 343.062 195.455 365.618 258.42 408.372C321.385 451.127 369.857 512.054 397.393 583.053C424.946 512.056 473.431 451.132 536.403 408.38C599.375 365.627 673.854 343.068 749.94 343.703L774.99 343.903L770.788 368.577C761.607 422.271 740.982 473.357 710.317 518.359C679.652 563.362 639.666 601.227 593.077 629.379L591.858 630.089L587.837 632.475L582.38 635.625L581.616 636.044C525.278 667.272 461.936 683.654 397.538 683.654C333.14 683.654 269.798 667.272 213.46 636.044L212.459 635.498L207.239 632.493L202.964 629.962L201.981 629.379C155.346 601.239 115.317 563.369 84.6193 518.348C53.9213 473.327 33.2759 422.213 24.0885 368.486L19.8862 343.83L44.8992 343.703Z" fill="white"/>
<path fill-rule="evenodd" clip-rule="evenodd" d="M470.646 273.299V337.981H406.03V273.299H470.646ZM406.03 191.355H470.646V256.036H406.03V191.355ZM388.821 273.299V337.981H324.206V273.299H388.821ZM324.206 191.355H388.821V256.036H324.206V191.355Z" fill="white"/>
</svg>
