<svg width="25" height="25" viewBox="0 0 25 25" fill="none" xmlns="http://www.w3.org/2000/svg">
<path fill-rule="evenodd" clip-rule="evenodd" d="M12.5 21.1162C17.4706 21.1162 21.5 17.0868 21.5 12.1162C21.5 7.14565 17.4706 3.11621 12.5 3.11621C7.52944 3.11621 3.5 7.14565 3.5 12.1162C3.5 17.0868 7.52944 21.1162 12.5 21.1162ZM11.1152 8.30824C11.1152 7.73471 11.5802 7.26978 12.1537 7.26978C12.7272 7.26978 13.1922 7.73471 13.1922 8.30824V11.4244H16.3077C16.8813 11.4244 17.3462 11.8894 17.3462 12.4629C17.3462 13.0364 16.8813 13.5014 16.3077 13.5014H12.8462C12.7244 13.5014 12.6074 13.4804 12.4988 13.4418C12.3908 13.4799 12.2747 13.5005 12.1537 13.5005C11.5802 13.5005 11.1152 13.0356 11.1152 12.4621V8.30824Z" fill="white" fill-opacity="0.4"/>
</svg>
