<svg width="38" height="34" viewBox="0 0 38 34" fill="none" xmlns="http://www.w3.org/2000/svg">
<path d="M0 11.7051L18.4938 1.02886L19 0.735779L19.5062 1.02886L38 11.7051L36.9877 13.4671L19 3.08219L1.0123 13.4671L0 11.7051Z" fill="#9DDC21"/>
<path d="M25.4009 22.9675C22.859 25.1331 21.0667 28.0467 20.2802 31.2921C23.6285 31.0251 26.8089 29.7154 29.3742 27.547C31.9395 25.3786 33.7605 22.4606 34.5813 19.2035C31.1971 19.4428 27.9791 20.7622 25.4009 22.9675ZM12.6009 22.9675C10.0216 20.7631 6.8025 19.4455 3.41786 19.2087C4.23854 22.466 6.05968 25.3841 8.62515 27.5526C11.1906 29.721 14.3713 31.0307 17.7198 31.2973C16.9353 28.0501 15.1435 25.1343 12.6009 22.9675ZM2.14638 17.1406C5.78366 17.11 9.3441 18.1872 12.3543 20.2291C15.3645 22.2711 17.6819 25.1809 18.9983 28.5717C20.3155 25.181 22.6335 22.2713 25.644 20.2295C28.6546 18.1877 32.2152 17.1103 35.8528 17.1406L37.0503 17.1502L36.8494 18.3286C36.4105 20.8929 35.4245 23.3327 33.9585 25.482C32.4924 27.6313 30.5808 29.4397 28.3535 30.7842L28.2952 30.8181L28.103 30.932L27.8421 31.0825L27.8056 31.1025C25.1122 32.5939 22.0839 33.3763 19.0052 33.3763C15.9265 33.3763 12.8983 32.5939 10.2049 31.1025L10.157 31.0764L9.90744 30.9329L9.70307 30.812L9.6561 30.7842C7.4266 29.4402 5.51289 27.6316 4.0453 25.4815C2.5777 23.3313 1.59069 20.8902 1.15146 18.3242L0.950562 17.1467L2.14638 17.1406Z" fill="#9DDC21"/>
<path fill-rule="evenodd" clip-rule="evenodd" d="M22.5005 13.7784V16.8676H19.4114V13.7784H22.5005ZM19.4114 9.86487H22.5005V12.954H19.4114V9.86487ZM18.5886 13.7784V16.8676H15.4995V13.7784H18.5886ZM15.4995 9.86487H18.5886V12.954H15.4995V9.86487Z" fill="#9DDC21"/>
</svg>
