<svg width="17" height="18" viewBox="0 0 17 18" fill="none" xmlns="http://www.w3.org/2000/svg">
<path d="M16.8905 13.9732C16.8505 13.7255 16.6952 13.5139 16.4626 13.3881L13.0222 11.3611L12.9939 11.3452C12.8496 11.273 12.6903 11.236 12.529 11.2372C12.2408 11.2372 11.9655 11.3464 11.7745 11.5379L10.759 12.5539C10.7156 12.5951 10.574 12.6549 10.531 12.6571C10.5193 12.6561 9.3495 12.5719 7.19598 10.4181C5.0463 8.26891 4.9551 7.09555 4.95438 7.09555C4.95558 7.03555 5.01462 6.89443 5.05662 6.85075L5.92254 5.98507C6.22758 5.67931 6.31902 5.17243 6.13806 4.77979L4.22574 1.18147C4.08678 0.89539 3.81678 0.71875 3.51726 0.71875C3.30534 0.71875 3.10086 0.80659 2.94102 0.96619L0.580618 3.32131C0.354298 3.54643 0.159418 3.94003 0.116938 4.25683C0.0962976 4.40827 -0.322502 8.02315 4.6335 12.9799C8.84094 17.1868 12.1217 17.5137 13.0277 17.5137C13.1381 17.5151 13.2484 17.5094 13.358 17.4967C13.6738 17.4544 14.0669 17.26 14.2918 17.0347L16.6503 14.6764C16.8428 14.483 16.9306 14.2274 16.8905 13.9732Z" fill="black"/>
</svg>
