<svg width="24" height="25" viewBox="0 0 24 25" fill="none" xmlns="http://www.w3.org/2000/svg">
<path d="M11.5 8.86621H11V9.86621H11.5V8.86621ZM3 11.6162L2.60957 11.3039L2.40972 11.5537L2.55279 11.8398L3 11.6162ZM3.6041 10.8611L3.21367 10.5487H3.21367L3.6041 10.8611ZM6.58005 10.6963L6.2265 11.0498H6.2265L6.58005 10.6963ZM7.5 11.6162L7.14645 11.9698L8 12.8233V11.6162H7.5ZM11 9.11621V9.61621H12V9.11621H11ZM15.5 8.86621H11.5V9.86621H15.5V8.86621ZM19 13.3662V14.6162H20V13.3662H19ZM15.5 9.86621C17.433 9.86621 19 11.4332 19 13.3662H20C20 10.8809 17.9853 8.86621 15.5 8.86621V9.86621ZM6.48278 17.4637L3.44721 11.3926L2.55279 11.8398L5.58835 17.9109L6.48278 17.4637ZM3.39043 11.9286L3.99453 11.1734L3.21367 10.5487L2.60957 11.3039L3.39043 11.9286ZM6.2265 11.0498L7.14645 11.9698L7.85355 11.2627L6.9336 10.3427L6.2265 11.0498ZM8 11.6162V9.86621H7V11.6162H8ZM8 9.86621V9.11621H7V9.86621H8ZM3.99453 11.1734C4.55302 10.4753 5.59433 10.4177 6.2265 11.0498L6.9336 10.3427C5.88 9.2891 4.14448 9.38522 3.21367 10.5487L3.99453 11.1734ZM12.434 21.1162C9.92804 21.1162 7.60056 19.6993 6.48278 17.4637L5.58835 17.9109C6.87844 20.4911 9.55583 22.1162 12.434 22.1162V21.1162ZM19 14.6162C19 18.2 16.03 21.1162 12.434 21.1162V22.1162C16.57 22.1162 20 18.7644 20 14.6162H19ZM8 9.11621V4.61621H7V9.11621H8ZM11 4.61621V9.11621H12V4.61621H11ZM9.5 3.11621C10.3284 3.11621 11 3.78778 11 4.61621H12C12 3.2355 10.8807 2.11621 9.5 2.11621V3.11621ZM8 4.61621C8 3.78778 8.67157 3.11621 9.5 3.11621V2.11621C8.11929 2.11621 7 3.2355 7 4.61621H8Z" fill="white"/>
</svg>
