<svg width="25" height="25" viewBox="0 0 25 25" fill="none" xmlns="http://www.w3.org/2000/svg">
<path d="M12.5036 2.11624C6.71202 2.11624 2.00207 6.82447 2.00001 12.6116C1.99716 14.5877 2.55364 16.5243 3.60513 18.1975L3.85494 18.5946L2.79407 22.4676L6.76799 21.4256L7.15171 21.6529C8.76336 22.6094 10.6112 23.1152 12.4957 23.1162H12.4997C18.2868 23.1162 22.9967 18.4075 22.999 12.62C23.0033 11.2406 22.734 9.874 22.2066 8.59936C21.6793 7.32473 20.9043 6.16737 19.9266 5.19428C18.9543 4.21587 17.7976 3.44004 16.5234 2.91169C15.2493 2.38334 13.883 2.11298 12.5036 2.11624Z" fill="url(#paint0_linear_67_2513)"/>
<path fill-rule="evenodd" clip-rule="evenodd" d="M9.3425 7.33148C9.10591 6.80594 8.85696 6.79529 8.63222 6.78619L8.02719 6.77881C7.8167 6.77881 7.47469 6.85779 7.18557 7.17369C6.89644 7.4896 6.08075 8.2531 6.08075 9.80603C6.08075 11.359 7.21184 12.8595 7.36945 13.0704C7.52706 13.2812 9.55299 16.5695 12.7613 17.8347C15.4275 18.8861 15.97 18.677 16.549 18.6245C17.1279 18.572 18.4164 17.861 18.6793 17.1239C18.9421 16.3869 18.9423 15.7554 18.8635 15.6234C18.7847 15.4913 18.5742 15.4129 18.2583 15.2549C17.9424 15.097 16.3908 14.3335 16.1016 14.2281C15.8123 14.1226 15.6019 14.0703 15.3913 14.3862C15.1806 14.7021 14.5764 15.4127 14.3922 15.6234C14.208 15.834 14.0241 15.8605 13.7082 15.7027C13.3923 15.5449 12.3759 15.2115 11.17 14.1362C10.2317 13.2996 9.59832 12.2663 9.41392 11.9506C9.22953 11.6349 9.39435 11.4639 9.55265 11.3066C9.69429 11.1651 9.86821 10.938 10.0263 10.7538C10.1845 10.5695 10.2365 10.4378 10.3416 10.2275C10.4466 10.0172 10.3943 9.83247 10.3153 9.67469C10.2363 9.5169 9.62304 7.95574 9.3425 7.33148Z" fill="white"/>
<defs>
<linearGradient id="paint0_linear_67_2513" x1="12.2857" y1="3.37644" x2="12.3922" y2="21.3222" gradientUnits="userSpaceOnUse">
<stop stop-color="#57D163"/>
<stop offset="1" stop-color="#23B33A"/>
</linearGradient>
</defs>
</svg>
