<?xml version="1.0" encoding="utf-8"?><svg viewBox="0 0 795 684" xmlns="http://www.w3.org/2000/svg" xmlns:xlink="http://www.w3.org/1999/xlink"><style>:root>svg{display:none}:root>svg:target{display:block}</style><svg fill="none" viewBox="0 0 795 684" id="Bg-icon" xmlns="http://www.w3.org/2000/svg"><path d="M0 229.89 386.838 6.346 397.426.209l10.587 6.137L794.852 229.89l-21.175 36.893L397.426 49.339 21.175 266.783 0 229.89ZM531.317 465.709a331.634 331.634 0 0 0-107.11 174.305 335.856 335.856 0 0 0 190.221-78.418 336.42 336.42 0 0 0 108.917-174.7 331.214 331.214 0 0 0-192.028 78.813Zm-267.74 0a331.048 331.048 0 0 0-192.082-78.703 336.4 336.4 0 0 0 108.922 174.708 335.825 335.825 0 0 0 190.234 78.409 331.47 331.47 0 0 0-107.074-174.414ZM44.899 343.703a374.474 374.474 0 0 1 213.521 64.669 375.064 375.064 0 0 1 138.973 174.681 375.176 375.176 0 0 1 139.01-174.673 374.592 374.592 0 0 1 213.537-64.677l25.05.2-4.202 24.674a379.615 379.615 0 0 1-60.471 149.782 379.173 379.173 0 0 1-117.24 111.02l-1.219.71-4.021 2.386-5.457 3.15-.764.419a379.69 379.69 0 0 1-184.078 47.61 379.69 379.69 0 0 1-184.078-47.61l-1.001-.546-5.22-3.005-4.275-2.531-.983-.583A379.124 379.124 0 0 1 84.619 518.348a379.585 379.585 0 0 1-60.53-149.862l-4.203-24.656 25.013-.127Z" fill="#fff"/><path fill-rule="evenodd" clip-rule="evenodd" d="M470.646 273.299v64.682H406.03v-64.682h64.616Zm-64.616-81.944h64.616v64.681H406.03v-64.681Zm-17.209 81.944v64.682h-64.615v-64.682h64.615Zm-64.615-81.944h64.615v64.681h-64.615v-64.681Z" fill="#fff"/></svg><svg fill="none" viewBox="0 0 16 17" id="Checkbox" xmlns="http://www.w3.org/2000/svg"><rect y=".409" width="16" height="16" rx="8" fill="#9AE800"/><path d="m4 8.136 3.077 3.273 4.923-6" stroke="#fff" stroke-width="1.5" stroke-linecap="round" stroke-linejoin="round"/><path d="m4 8.136 3.077 3.273 4.923-6" stroke="#fff" stroke-width="1.5" stroke-linecap="round" stroke-linejoin="round"/></svg><svg fill="none" viewBox="0 0 25 25" id="Telegram-icon" xmlns="http://www.w3.org/2000/svg"><g clip-path="url(#aya)"><path d="M12.505 24.126c6.63 0 12.005-5.375 12.005-12.005 0-6.63-5.375-12.005-12.005-12.005C5.875.116.5 5.491.5 12.121c0 6.63 5.375 12.005 12.005 12.005Z" fill="url(#ayb)"/><path fill-rule="evenodd" clip-rule="evenodd" d="M5.928 11.991a797.766 797.766 0 0 1 6.997-3.019c3.328-1.39 4.028-1.629 4.478-1.639.1 0 .32.02.47.14.12.1.15.23.17.33.02.1.04.31.02.47-.18 1.899-.96 6.507-1.36 8.626-.17.9-.5 1.2-.82 1.23-.7.06-1.229-.46-1.899-.9-1.06-.69-1.649-1.12-2.678-1.8-1.19-.779-.42-1.209.26-1.909.18-.18 3.248-2.978 3.308-3.228.01-.03.01-.15-.06-.21-.07-.06-.17-.04-.25-.02-.11.02-1.79 1.14-5.058 3.349-.48.33-.91.49-1.3.48-.429-.01-1.249-.24-1.868-.44-.75-.24-1.35-.37-1.3-.79.03-.22.33-.44.89-.67Z" fill="#fff"/></g><defs><linearGradient id="ayb" x1="12.495" y1=".116" x2="12.495" y2="23.936" gradientUnits="userSpaceOnUse"><stop stop-color="#2AABEE"/><stop offset="1" stop-color="#229ED9"/></linearGradient><clipPath id="aya"><path fill="#fff" transform="translate(.5 .116)" d="M0 0h24v24H0z"/></clipPath></defs></svg><svg fill="none" viewBox="0 0 25 25" id="WhatsApp-icon" xmlns="http://www.w3.org/2000/svg"><path d="M12.504 2.116C6.712 2.116 2.002 6.824 2 12.612a10.47 10.47 0 0 0 1.605 5.586l.25.397-1.06 3.873 3.973-1.042.384.227a10.485 10.485 0 0 0 5.344 1.463h.004c5.787 0 10.497-4.709 10.499-10.496a10.431 10.431 0 0 0-3.072-7.426 10.43 10.43 0 0 0-7.423-3.078Z" fill="url(#baa)"/><path fill-rule="evenodd" clip-rule="evenodd" d="M9.342 7.331c-.236-.525-.485-.536-.71-.545l-.605-.007c-.21 0-.552.079-.841.395-.29.316-1.105 1.08-1.105 2.632 0 1.553 1.13 3.054 1.288 3.264.158.211 2.184 3.5 5.392 4.765 2.667 1.051 3.209.842 3.788.79.579-.053 1.867-.764 2.13-1.501.263-.737.263-1.369.184-1.5-.078-.133-.289-.211-.605-.37-.316-.157-1.867-.92-2.156-1.026-.29-.105-.5-.158-.71.158-.211.316-.816 1.027-1 1.237-.184.211-.368.238-.684.08-.316-.158-1.332-.492-2.538-1.567-.938-.836-1.572-1.87-1.756-2.185-.184-.316-.02-.487.139-.644.141-.142.315-.369.473-.553.159-.184.21-.316.316-.527.105-.21.052-.395-.027-.552-.079-.158-.692-1.72-.973-2.344Z" fill="#fff"/><defs><linearGradient id="baa" x1="12.286" y1="3.376" x2="12.392" y2="21.322" gradientUnits="userSpaceOnUse"><stop stop-color="#57D163"/><stop offset="1" stop-color="#23B33A"/></linearGradient></defs></svg><svg fill="none" viewBox="0 0 11 11" id="arr" xmlns="http://www.w3.org/2000/svg"><path d="M7.869 2.569H1.547V.902h9.167v9.167H9.048V3.747L1.875 10.92.697 9.74l7.172-7.172Z" fill="#fff"/></svg><svg fill="none" viewBox="0 0 11 11" id="arrow" xmlns="http://www.w3.org/2000/svg"><path d="M7.869 2.569H1.547V.902h9.166v9.167H9.047V3.747L1.875 10.92.696 9.74 7.87 2.569Z" fill="#0B0B0B"/></svg><svg fill="none" viewBox="0 0 17 12" id="arrow-left" xmlns="http://www.w3.org/2000/svg"><path d="m7.5 1.116-5.5 5m0 0 5.5 5m-5.5-5h14" stroke="#B6B6B6" stroke-width="1.5" stroke-linecap="round"/></svg><svg fill="none" viewBox="0 0 17 12" id="arrow-right" xmlns="http://www.w3.org/2000/svg"><path d="m9.5 1.116 5.5 5m0 0-5.5 5m5.5-5H1" stroke="#000" stroke-width="1.5" stroke-linecap="round"/></svg><svg fill="none" viewBox="0 0 20 21" id="arrow-up" xmlns="http://www.w3.org/2000/svg"><g clip-path="url(#ada)"><path d="M11.868 7.569H5.547V5.902h9.166v9.167h-1.666V8.747L5.875 15.92 4.696 14.74l7.172-7.172Z" fill="#0B0B0B"/></g><defs><clipPath id="ada"><path fill="#fff" transform="translate(0 .616)" d="M0 0h20v20H0z"/></clipPath></defs></svg><svg fill="none" viewBox="0 0 48 49" id="builder-employee" xmlns="http://www.w3.org/2000/svg"><path d="M6 42.116v-.943a6 6 0 0 1 4.823-5.883l5.692-1.139a1.81 1.81 0 0 1 1.358.269v0a11.045 11.045 0 0 0 12.254 0v0a1.81 1.81 0 0 1 1.358-.269l5.692 1.139A6 6 0 0 1 42 41.173v.943M16 42.116v-7.862M32 42.116v-7.862" stroke="#9DDC21" stroke-width="2" stroke-linecap="round" stroke-linejoin="round"/><path clip-rule="evenodd" d="M15.67 18.116h16.66a2 2 0 0 0 2-2v-1.67A10.33 10.33 0 0 0 24 4.117v0a10.33 10.33 0 0 0-10.33 10.33v1.67a2 2 0 0 0 2 2Z" stroke="#9DDC21" stroke-width="2" stroke-linecap="round" stroke-linejoin="round"/><path d="M13 18.116h22M32 18.116v4a8 8 0 0 1-8 8v0a8 8 0 0 1-8-8v-4M28.202 28.926l1.449 5.793M19.802 28.926l-1.448 5.793M27 4.559v2.758a3 3 0 0 1-3 3v0a3 3 0 0 1-3-3V4.56M14 42.116h20" stroke="#9DDC21" stroke-width="2" stroke-linecap="round" stroke-linejoin="round"/></svg><svg fill="none" viewBox="0 0 25 25" id="clock" xmlns="http://www.w3.org/2000/svg"><path fill-rule="evenodd" clip-rule="evenodd" d="M12.5 21.116a9 9 0 1 0 0-18 9 9 0 0 0 0 18ZM11.115 8.308a1.039 1.039 0 0 1 2.077 0v3.116h3.116a1.038 1.038 0 1 1 0 2.077h-3.462c-.122 0-.239-.02-.347-.06a1.038 1.038 0 0 1-1.384-.98V8.31Z" fill="#fff" fill-opacity=".4"/></svg><svg fill="none" viewBox="0 0 21 20" id="comment" xmlns="http://www.w3.org/2000/svg"><path d="M15.75 11.866h2.002a2 2 0 0 0 2-2v-6.5a2 2 0 0 0-2-2H7.502a2 2 0 0 0-2 2v2m8.25 0h-10.5a2 2 0 0 0-2 2v6.5a2 2 0 0 0 2 2h1.25v2.5l4.5-2.5h4.75a2 2 0 0 0 2-2v-6.5a2 2 0 0 0-2-2Z" stroke="#000" stroke-width="1.5" stroke-linecap="round" stroke-linejoin="round"/></svg><svg fill="none" viewBox="0 0 16 16" id="download" xmlns="http://www.w3.org/2000/svg"><path d="M14.875 10.408v4.583H1.125v-4.583M8 10.616V1.241m0 9.375L5.083 7.7M8 10.616 10.917 7.7" stroke="#fff" stroke-width="1.5" stroke-linecap="round" stroke-linejoin="round"/></svg><svg fill="none" viewBox="0 0 10 7" id="dropdown-arrow" xmlns="http://www.w3.org/2000/svg"><path d="m1 1.616 4 4 4-4" stroke="#222" stroke-width="1.5" stroke-linecap="round" stroke-linejoin="round"/></svg><svg fill="none" viewBox="0 0 25 25" id="icon-time" xmlns="http://www.w3.org/2000/svg"><path fill-rule="evenodd" clip-rule="evenodd" d="M12.5 21.116a9 9 0 1 0 0-18 9 9 0 0 0 0 18ZM11.115 8.308a1.039 1.039 0 0 1 2.077 0v3.116h3.116a1.038 1.038 0 1 1 0 2.077h-3.462c-.122 0-.239-.02-.347-.06a1.038 1.038 0 0 1-1.384-.98V8.31Z" fill="#fff" fill-opacity=".4"/></svg><svg fill="none" viewBox="0 0 48 49" id="list-house" xmlns="http://www.w3.org/2000/svg"><path d="M16 10.116h-4a4 4 0 0 0-4 4v24a4 4 0 0 0 4 4h10" stroke="#9DDC21" stroke-width="2" stroke-linecap="round" stroke-linejoin="round"/><rect x="16" y="6.116" width="16" height="8" rx="2" stroke="#9DDC21" stroke-width="2" stroke-linecap="round" stroke-linejoin="round"/><path d="M32 10.116h4a4 4 0 0 1 4 4v10" stroke="#9DDC21" stroke-width="2" stroke-linecap="round" stroke-linejoin="round"/><path clip-rule="evenodd" d="M42 35.374v4.742a2 2 0 0 1-2 2h-8a2 2 0 0 1-2-2v-4.858a2 2 0 0 1 .75-1.561l3.929-3.143a2 2 0 0 1 2.498 0l4.072 3.258A2 2 0 0 1 42 35.374Z" stroke="#9DDC21" stroke-width="2" stroke-linecap="round" stroke-linejoin="round"/><path d="M16 21.866a.25.25 0 1 0 0 .5.25.25 0 0 0 0-.5M16 29.866a.25.25 0 1 0 0 .5.25.25 0 0 0 0-.5M32 22.116H22M24 30.116h-2" stroke="#9DDC21" stroke-width="2" stroke-linecap="round" stroke-linejoin="round"/></svg><svg fill="none" viewBox="0 0 38 34" id="logo" xmlns="http://www.w3.org/2000/svg"><path d="M0 11.705 18.494 1.03 19 .736l.506.293L38 11.705l-1.012 1.762L19 3.082 1.012 13.467 0 11.705ZM25.4 22.968a15.836 15.836 0 0 0-5.12 8.324 16.065 16.065 0 0 0 14.301-12.089 15.843 15.843 0 0 0-9.18 3.765Zm-12.8 0a15.835 15.835 0 0 0-9.182-3.76 16.064 16.064 0 0 0 14.302 12.09 15.828 15.828 0 0 0-5.12-8.33ZM2.147 17.14a17.916 17.916 0 0 1 16.852 11.43 17.921 17.921 0 0 1 16.855-11.43l1.197.01-.2 1.178a18.12 18.12 0 0 1-8.497 12.455l-.058.034-.192.114-.26.15-.037.02a18.167 18.167 0 0 1-17.601 0l-.048-.026-.25-.143-.204-.121-.047-.028a18.119 18.119 0 0 1-8.505-12.46l-.2-1.177 1.195-.006Z" fill="#9DDC21"/><path fill-rule="evenodd" clip-rule="evenodd" d="M22.5 13.778v3.09h-3.089v-3.09h3.09Zm-3.089-3.913h3.09v3.089h-3.09v-3.09Zm-.822 3.913v3.09h-3.09v-3.09h3.09Zm-3.09-3.913h3.09v3.089h-3.09v-3.09Z" fill="#9DDC21"/></svg><svg fill="none" viewBox="0 0 18 15" id="mail-icon" xmlns="http://www.w3.org/2000/svg"><path d="M16.708 1.575h.625V.95h-.625v.625Zm0 12.083v.625h.625v-.625h-.625Zm-15.416 0H.667v.625h.625v-.625Zm0-12.083V.95H.667v.625h.625ZM9 8.45l-.396.483.396.324.396-.324L9 8.45Zm7.083-6.875v12.083h1.25V1.575h-1.25Zm.625 11.458H1.292v1.25h15.416v-1.25Zm-14.791.625V1.575H.667v12.083h1.25ZM1.292 2.2h15.416V.95H1.292V2.2Zm8.104 5.766-7.5-6.137-.792.968 7.5 6.136.792-.967Zm6.708-6.137-7.5 6.137.792.967 7.5-6.136-.792-.968Z" fill="#fff"/></svg><svg fill="none" viewBox="0 0 15 21" id="map-pin" xmlns="http://www.w3.org/2000/svg"><path d="M7.5.116c-3.87 0-7 3.13-7 7 0 5.25 7 13 7 13s7-7.75 7-13c0-3.87-3.13-7-7-7Zm0 9.5a2.5 2.5 0 0 1 0-5 2.5 2.5 0 0 1 0 5Z" fill="#fff" fill-opacity=".4"/></svg><svg fill="none" viewBox="0 0 15 9" id="nav-btn-up" xmlns="http://www.w3.org/2000/svg"><path d="m13.5 7.616-6-6-6 6" stroke="#222" stroke-width="2" stroke-linecap="round" stroke-linejoin="round"/></svg><svg fill="none" viewBox="0 0 17 18" id="phone" xmlns="http://www.w3.org/2000/svg"><path d="M16.89 13.973a.813.813 0 0 0-.427-.585l-3.44-2.027-.03-.016a1.022 1.022 0 0 0-.464-.108c-.288 0-.563.11-.755.3l-1.015 1.017a.596.596 0 0 1-.228.103c-.012 0-1.181-.085-3.335-2.239-2.15-2.15-2.24-3.322-2.242-3.322a.542.542 0 0 1 .103-.245l.866-.866c.305-.306.396-.813.215-1.205L4.226 1.18A.79.79 0 0 0 3.517.72a.815.815 0 0 0-.576.247L.581 3.321a1.807 1.807 0 0 0-.464.936c-.02.151-.44 3.766 4.516 8.723 4.208 4.207 7.489 4.534 8.395 4.534.11.001.22-.005.33-.017.316-.043.709-.237.934-.462l2.358-2.359a.812.812 0 0 0 .24-.703Z" fill="#000"/></svg><svg fill="none" viewBox="0 0 16 16" id="phone-icon" xmlns="http://www.w3.org/2000/svg"><path d="M6.542 4.283 5.5.74H1.127L1.125.95c0 2.472.663 4.79 1.82 6.785a13.609 13.609 0 0 0 4.936 4.936 13.479 13.479 0 0 0 6.786 1.82h.208v-4.375l-3.542-1.041-1.506 1.57A10.88 10.88 0 0 1 4.972 5.79l1.57-1.507Z" stroke="#fff" stroke-width="1.25"/></svg><svg fill="none" viewBox="0 0 15 21" id="pin" xmlns="http://www.w3.org/2000/svg"><path d="M7.5.116c-3.87 0-7 3.13-7 7 0 5.25 7 13 7 13s7-7.75 7-13c0-3.87-3.13-7-7-7Zm0 9.5a2.5 2.5 0 0 1 0-5 2.5 2.5 0 0 1 0 5Z" fill="#fff" fill-opacity=".4"/></svg><svg fill="none" viewBox="0 0 117 182" id="pinn" xmlns="http://www.w3.org/2000/svg"><g filter="url(#ava)"><rect x="30" y=".116" width="57" height="57" rx="16" fill="#1F5D46"/><path d="M39.5 23.265 57.994 12.59l.506-.293.506.293L77.5 23.265l-1.012 1.762L58.5 14.642 40.512 25.027 39.5 23.265ZM64.9 34.528a15.836 15.836 0 0 0-5.12 8.324 16.065 16.065 0 0 0 14.301-12.088 15.844 15.844 0 0 0-9.18 3.764Zm-12.8 0a15.836 15.836 0 0 0-9.182-3.76 16.063 16.063 0 0 0 14.302 12.09 15.828 15.828 0 0 0-5.12-8.33ZM41.647 28.7a17.916 17.916 0 0 1 16.852 11.431 17.922 17.922 0 0 1 16.855-11.431l1.197.01-.2 1.178a18.12 18.12 0 0 1-8.496 12.455l-.059.034-.192.114-.26.15-.037.02a18.168 18.168 0 0 1-17.601 0l-.048-.025-.25-.144-.204-.12-.047-.029a18.118 18.118 0 0 1-8.505-12.46l-.2-1.177 1.195-.006Z" fill="#9DDC21"/><path fill-rule="evenodd" clip-rule="evenodd" d="M62 25.338v3.09h-3.089v-3.09h3.09Zm-3.089-3.913h3.09v3.089h-3.09v-3.09Zm-.822 3.913v3.09h-3.09v-3.09h3.09Zm-3.09-3.913h3.09v3.089h-3.09v-3.09Z" fill="#9DDC21"/><path stroke="#235560" stroke-width="3" d="M59.5 57.116v22"/></g><defs><filter id="ava" x="0" y=".116" width="117" height="181" filterUnits="userSpaceOnUse" color-interpolation-filters="sRGB"><feFlood flood-opacity="0" result="BackgroundImageFix"/><feColorMatrix in="SourceAlpha" values="0 0 0 0 0 0 0 0 0 0 0 0 0 0 0 0 0 0 127 0" result="hardAlpha"/><feOffset dy="72"/><feGaussianBlur stdDeviation="15"/><feComposite in2="hardAlpha" operator="out"/><feColorMatrix values="0 0 0 0 0 0 0 0 0 0 0 0 0 0 0 0 0 0 0.07 0"/><feBlend in2="BackgroundImageFix" result="effect1_dropShadow_70_777"/><feBlend in="SourceGraphic" in2="effect1_dropShadow_70_777" result="shape"/></filter></defs></svg><svg fill="none" viewBox="0 0 24 25" id="pointer" xmlns="http://www.w3.org/2000/svg"><path d="M11.5 8.866H11v1h.5v-1ZM3 11.616l-.39-.312-.2.25.143.286.447-.224Zm.604-.755-.39-.312.39.312Zm2.976-.165-.354.354.354-.354Zm.92.92-.354.354.854.853v-1.207h-.5Zm3.5-2.5v.5h1v-.5h-1Zm4.5-.25h-4v1h4v-1Zm3.5 4.5v1.25h1v-1.25h-1Zm-3.5-3.5a3.5 3.5 0 0 1 3.5 3.5h1a4.5 4.5 0 0 0-4.5-4.5v1Zm-9.017 7.598-3.036-6.071-.894.447 3.035 6.07.895-.446ZM3.39 11.929l.605-.756-.781-.624-.604.755.78.625Zm2.836-.88.92.92.708-.706-.92-.92-.708.707ZM8 11.617v-1.75H7v1.75h1Zm0-1.75v-.75H7v.75h1Zm-4.005 1.307a1.5 1.5 0 0 1 2.231-.123l.708-.707a2.5 2.5 0 0 0-3.72.206l.78.624Zm8.439 9.943c-2.506 0-4.833-1.417-5.951-3.652l-.895.447c1.29 2.58 3.968 4.205 6.846 4.205v-1Zm6.566-6.5c0 3.584-2.97 6.5-6.566 6.5v1c4.136 0 7.566-3.352 7.566-7.5h-1Zm-11-5.5v-4.5H7v4.5h1Zm3-4.5v4.5h1v-4.5h-1Zm-1.5-1.5a1.5 1.5 0 0 1 1.5 1.5h1a2.5 2.5 0 0 0-2.5-2.5v1ZM8 4.616a1.5 1.5 0 0 1 1.5-1.5v-1a2.5 2.5 0 0 0-2.5 2.5h1Z" fill="#fff"/></svg><svg fill="none" viewBox="0 0 48 49" id="project-plan-pen-arrow" xmlns="http://www.w3.org/2000/svg"><path d="M34.143 35.116V13.26h-5v4.143M20.857 35.116v-8.429h6v8.43M13.571 21.79v13.326M36 35.116H12" stroke="#9DDC21" stroke-width="2" stroke-linecap="round" stroke-linejoin="round"/><path d="m12 23.116 12-10 12 10" stroke="#9DDC21" stroke-width="2" stroke-linecap="round" stroke-linejoin="round"/><path d="M6 24.116v12a6 6 0 0 0 6 6h24a6 6 0 0 0 6-6v-24a6 6 0 0 0-6-6H24M18 6.116h-8a4 4 0 0 0-4 4v8" stroke="#9DDC21" stroke-width="2" stroke-linecap="round" stroke-linejoin="round"/><path d="m3 15.116 3 3 3-3M15 9.116l3-3-3-3" stroke="#9DDC21" stroke-width="2" stroke-linecap="round" stroke-linejoin="round"/></svg><svg fill="none" viewBox="0 0 23 25" id="viber-icon" xmlns="http://www.w3.org/2000/svg"><g clip-path="url(#aza)"><path d="M19.607 2.13c-.544-.495-2.895-1.972-7.8-1.994 0 0-5.808-.381-8.628 2.173-1.57 1.55-2.098 3.853-2.156 6.665-.058 2.812-.358 8.183 4.785 9.612l-.022 4.338c0 .245.038.413.178.448.101.024.252-.028.38-.156.823-.826 3.456-4.002 3.456-4.002 3.532.23 6.343-.467 6.645-.566.713-.229 4.567-.56 5.22-5.83.674-5.431-.248-9.139-2.058-10.688Z" fill="#7360F2"/><path d="M14.3 8.743c-.063-1.286-.716-1.961-1.959-2.026" stroke="#fff" stroke-width=".607" stroke-linecap="round" stroke-linejoin="round"/><path d="M15.983 9.307c.026-1.198-.329-2.2-1.064-3.003-.74-.807-1.763-1.251-3.075-1.347" stroke="#fff" stroke-width=".607" stroke-linecap="round" stroke-linejoin="round"/><path d="M17.706 9.98c-.016-2.079-.637-3.716-1.864-4.912-1.226-1.196-2.752-1.8-4.577-1.813" stroke="#fff" stroke-width=".607" stroke-linecap="round" stroke-linejoin="round"/><path d="M12.406 13.136s.461.038.71-.267l.483-.61c.234-.301.797-.494 1.348-.186.414.235.815.492 1.203.768.366.269 1.116.894 1.118.894.357.302.44.745.196 1.211l-.002.01a5.05 5.05 0 0 1-1.007 1.24c-.004.002-.004.005-.009.007-.347.29-.688.455-1.022.495a1.36 1.36 0 0 1-.584-.058l-.012-.016c-.515-.145-1.377-.51-2.81-1.3a16.73 16.73 0 0 1-2.363-1.561 12.372 12.372 0 0 1-1.062-.942l-.036-.036-.036-.036-.036-.036-.036-.035c-.334-.336-.648-.69-.942-1.063a16.762 16.762 0 0 1-1.56-2.361c-.791-1.435-1.155-2.296-1.3-2.812L4.63 6.43a1.361 1.361 0 0 1-.066-.435c-.003-.05 0-.1.009-.15.041-.334.206-.675.495-1.023l.007-.009c.357-.4.776-.74 1.24-1.007l.01-.002c.467-.243.91-.16 1.21.195.003.002.627.752.895 1.118.276.388.532.79.768 1.203.307.551.115 1.116-.187 1.348l-.609.484c-.307.249-.267.71-.267.71s.902 3.412 4.271 4.273Z" fill="#fff"/></g><defs><clipPath id="aza"><path fill="#fff" transform="translate(.12 .162)" d="M0 0h22.76v24H0z"/></clipPath></defs></svg></svg>