<svg width="23" height="25" viewBox="0 0 23 25" fill="none" xmlns="http://www.w3.org/2000/svg">
<g clip-path="url(#clip0_67_2527)">
<path d="M19.6074 2.1297C19.0628 1.63488 16.712 0.15781 11.807 0.136415C11.807 0.136415 5.99869 -0.245203 3.17915 2.30864C1.60989 3.85807 1.08122 6.16217 1.02326 8.97393C0.965299 11.7857 0.664983 17.1571 5.80808 18.586C5.80808 18.586 5.78785 22.5737 5.78551 22.9242C5.78551 23.1693 5.82442 23.3369 5.96446 23.3716C6.06521 23.3961 6.21615 23.3439 6.34452 23.216C7.16689 22.3901 9.7997 19.2138 9.7997 19.2138C13.3323 19.4445 16.1429 18.747 16.4452 18.6482C17.1578 18.4191 21.0125 18.088 21.6649 12.8185C22.339 7.38677 21.4171 3.67912 19.6074 2.1297Z" fill="#7360F2"/>
<path d="M14.3009 8.74315C14.2371 7.45708 13.5838 6.78163 12.3411 6.7168" stroke="white" stroke-width="0.607176" stroke-linecap="round" stroke-linejoin="round"/>
<path d="M15.9834 9.30684C16.0093 8.10869 15.6544 7.10764 14.9187 6.30368C14.1796 5.49688 13.1565 5.05263 11.8436 4.95654" stroke="white" stroke-width="0.607176" stroke-linecap="round" stroke-linejoin="round"/>
<path d="M17.7059 9.98057C17.6901 7.90144 17.0689 6.26397 15.8422 5.06815C14.6155 3.87234 13.09 3.26808 11.2655 3.25537" stroke="white" stroke-width="0.607176" stroke-linecap="round" stroke-linejoin="round"/>
<path d="M12.4061 13.1355C12.4061 13.1355 12.8671 13.1744 13.1152 12.8686L13.5992 12.2598C13.8326 11.9579 14.3959 11.7654 14.9475 12.0727C15.3609 12.3084 15.7622 12.5647 16.1499 12.8406C16.516 13.1098 17.2656 13.7353 17.2679 13.7353C17.625 14.0368 17.7075 14.4795 17.4644 14.9463C17.4644 14.949 17.4624 14.9537 17.4624 14.956C17.1946 15.4202 16.8547 15.8389 16.4553 16.1962C16.4506 16.1985 16.4506 16.2009 16.4463 16.2032C16.0993 16.4931 15.7584 16.6579 15.4236 16.6976C15.3743 16.7062 15.3242 16.7094 15.2743 16.707C15.1266 16.7084 14.9797 16.6858 14.8393 16.64L14.8284 16.6241C14.3126 16.4786 13.4514 16.1145 12.0171 15.3232C11.1871 14.8708 10.3969 14.3488 9.65501 13.7629C9.28315 13.4694 8.92844 13.1549 8.59263 12.8207L8.55684 12.785L8.52105 12.7492L8.48526 12.7134C8.4732 12.7017 8.46153 12.6897 8.44947 12.6776C8.11535 12.3418 7.80077 11.9871 7.50729 11.6152C6.92152 10.8734 6.39955 10.0833 5.94697 9.25353C5.15573 7.81886 4.79161 6.95837 4.64613 6.44177L4.63018 6.43088C4.58457 6.29047 4.5621 6.14358 4.56366 5.99597C4.56093 5.94599 4.56393 5.89588 4.5726 5.84659C4.61436 5.5123 4.77943 5.17114 5.06781 4.8231C5.07015 4.81882 5.07248 4.81882 5.07481 4.81416C5.43204 4.41476 5.85069 4.07491 6.31498 3.8074C6.31731 3.8074 6.32198 3.80506 6.3247 3.80506C6.79151 3.56193 7.23421 3.6444 7.5353 3.99957C7.53763 4.0019 8.16199 4.75152 8.43002 5.11758C8.70592 5.50571 8.96221 5.90741 9.19792 6.32118C9.50524 6.8724 9.31268 7.43686 9.01081 7.66948L8.40201 8.15341C8.09469 8.4016 8.13515 8.86258 8.13515 8.86258C8.13515 8.86258 9.03687 12.2754 12.4061 13.1355Z" fill="white"/>
</g>
<defs>
<clipPath id="clip0_67_2527">
<rect width="22.7597" height="24" fill="white" transform="translate(0.120117 0.162109)"/>
</clipPath>
</defs>
</svg>
